<?xml version='1.0' encoding='utf8'?>
<svg class="toyplot-canvas-Canvas" xmlns:toyplot="http://www.sandia.gov/toyplot" xmlns:xlink="http://www.w3.org/1999/xlink" xmlns="http://www.w3.org/2000/svg" width="1000.0px" height="600.0px" viewBox="0 0 1000.0 600.0" preserveAspectRatio="xMidYMid meet" style="background-color:transparent;border-color:#292724;border-style:none;border-width:1.0;fill:rgb(16.1%,15.3%,14.1%);fill-opacity:1.0;font-family:Helvetica;font-size:12px;opacity:1.0;stroke:rgb(16.1%,15.3%,14.1%);stroke-opacity:1.0;stroke-width:1.0" id="tb9f5c8e768944543a588ddf6d57fd88d"><g class="toyplot-coordinates-Cartesian" id="t869fb1b966d143a8a40c7ce5cb2cb6f3"><clipPath id="tb7fe43e2f35743a093365cdb58998e53"><rect x="30.0" y="30.0" width="940.0" height="540.0" /></clipPath><g clip-path="url(#tb7fe43e2f35743a093365cdb58998e53)"><g class="toytree-mark-Toytree" id="tf80cee47cd30481db32c52327b4bb408"><g class="toytree-Edges" style="fill:none;stroke:rgb(14.9%,14.9%,14.9%);stroke-linecap:round;stroke-opacity:1;stroke-width:2"><path d="M 51.4 150.2 L 51.4 70.2 L 552.0 70.2" id="58,57" /><path d="M 51.4 150.2 L 51.4 230.3 L 278.4 230.3" id="58,56" /><path d="M 278.4 230.3 L 278.4 128.9 L 378.3 128.9" id="56,55" /><path d="M 278.4 230.3 L 278.4 331.6 L 380.7 331.6" id="56,54" /><path d="M 378.3 128.9 L 378.3 103.0 L 583.1 103.0" id="55,53" /><path d="M 378.3 128.9 L 378.3 154.8 L 437.3 154.8" id="55,52" /><path d="M 380.7 331.6 L 380.7 273.3 L 486.3 273.3" id="54,51" /><path d="M 380.7 331.6 L 380.7 389.9 L 431.9 389.9" id="54,50" /><path d="M 437.3 154.8 L 437.3 182.0 L 450.8 182.0" id="52,49" /><path d="M 486.3 273.3 L 486.3 287.7 L 555.8 287.7" id="51,48" /><path d="M 431.9 389.9 L 431.9 349.2 L 462.2 349.2" id="50,47" /><path d="M 431.9 389.9 L 431.9 430.5 L 496.0 430.5" id="50,46" /><path d="M 450.8 182.0 L 450.8 156.4 L 468.3 156.4" id="49,45" /><path d="M 450.8 182.0 L 450.8 207.7 L 546.1 207.7" id="49,44" /><path d="M 555.8 287.7 L 555.8 300.0 L 627.6 300.0" id="48,43" /><path d="M 462.2 349.2 L 462.2 332.8 L 517.3 332.8" id="47,42" /><path d="M 462.2 349.2 L 462.2 365.7 L 558.9 365.7" id="47,41" /><path d="M 496.0 430.5 L 496.0 402.6 L 532.6 402.6" id="46,40" /><path d="M 496.0 430.5 L 496.0 458.5 L 559.5 458.5" id="46,39" /><path d="M 468.3 156.4 L 468.3 168.7 L 522.0 168.7" id="45,38" /><path d="M 546.1 207.7 L 546.1 222.0 L 566.3 222.0" id="44,37" /><path d="M 532.6 402.6 L 532.6 414.9 L 609.3 414.9" id="40,36" /><path d="M 559.5 458.5 L 559.5 477.5 L 582.1 477.5" id="39,35" /><path d="M 566.3 222.0 L 566.3 234.3 L 598.3 234.3" id="37,34" /><path d="M 582.1 477.5 L 582.1 499.0 L 590.2 499.0" id="35,33" /><path d="M 590.2 499.0 L 590.2 480.6 L 613.4 480.6" id="33,32" /><path d="M 590.2 499.0 L 590.2 517.5 L 608.0 517.5" id="33,31" /><path d="M 608.0 517.5 L 608.0 529.8 L 635.4 529.8" id="31,30" /><path d="M 552.0 70.2 L 552.0 62.0 L 676.0 62.0" id="57,29" /><path d="M 552.0 70.2 L 552.0 78.4 L 676.0 78.4" id="57,28" /><path d="M 583.1 103.0 L 583.1 94.8 L 676.0 94.8" id="53,27" /><path d="M 583.1 103.0 L 583.1 111.2 L 676.0 111.2" id="53,26" /><path d="M 437.3 154.8 L 437.3 127.7 L 518.8 127.7" id="52,25" /><path d="M 468.3 156.4 L 468.3 144.1 L 676.0 144.1" id="45,24" /><path d="M 522.0 168.7 L 522.0 160.5 L 676.0 160.5" id="38,23" /><path d="M 522.0 168.7 L 522.0 176.9 L 676.0 176.9" id="38,22" /><path d="M 546.1 207.7 L 546.1 193.3 L 676.0 193.3" id="44,21" /><path d="M 566.3 222.0 L 566.3 209.7 L 641.6 209.7" id="37,20" /><path d="M 598.3 234.3 L 598.3 226.1 L 676.0 226.1" id="34,19" /><path d="M 598.3 234.3 L 598.3 242.6 L 676.0 242.6" id="34,18" /><path d="M 486.3 273.3 L 486.3 259.0 L 676.0 259.0" id="51,17" /><path d="M 555.8 287.7 L 555.8 275.4 L 676.0 275.4" id="48,16" /><path d="M 627.6 300.0 L 627.6 291.8 L 676.0 291.8" id="43,15" /><path d="M 627.6 300.0 L 627.6 308.2 L 676.0 308.2" id="43,14" /><path d="M 517.3 332.8 L 517.3 324.6 L 676.0 324.6" id="42,13" /><path d="M 517.3 332.8 L 517.3 341.0 L 676.0 341.0" id="42,12" /><path d="M 558.9 365.7 L 558.9 357.4 L 676.0 357.4" id="41,11" /><path d="M 558.9 365.7 L 558.9 373.9 L 676.0 373.9" id="41,10" /><path d="M 532.6 402.6 L 532.6 390.3 L 676.0 390.3" id="40,9" /><path d="M 609.3 414.9 L 609.3 406.7 L 676.0 406.7" id="36,8" /><path d="M 609.3 414.9 L 609.3 423.1 L 676.0 423.1" id="36,7" /><path d="M 559.5 458.5 L 559.5 439.5 L 676.0 439.5" id="39,6" /><path d="M 582.1 477.5 L 582.1 455.9 L 676.0 455.9" id="35,5" /><path d="M 613.4 480.6 L 613.4 472.3 L 647.0 472.3" id="32,4" /><path d="M 613.4 480.6 L 613.4 488.8 L 676.0 488.8" id="32,3" /><path d="M 608.0 517.5 L 608.0 505.2 L 676.0 505.2" id="31,2" /><path d="M 635.4 529.8 L 635.4 521.6 L 676.0 521.6" id="30,1" /><path d="M 635.4 529.8 L 635.4 538.0 L 676.0 538.0" id="30,0" /></g><g class="toytree-AlignEdges" style="stroke:rgb(66.3%,66.3%,66.3%);stroke-dasharray:2, 4;stroke-linecap:round;stroke-opacity:1.0;stroke-width:2"><path d="M 676.0 538.0 L 676.0 538.0" /><path d="M 676.0 521.6 L 676.0 521.6" /><path d="M 676.0 505.2 L 676.0 505.2" /><path d="M 676.0 488.8 L 676.0 488.8" /><path d="M 676.0 472.3 L 647.0 472.3" /><path d="M 676.0 455.9 L 676.0 455.9" /><path d="M 676.0 439.5 L 676.0 439.5" /><path d="M 676.0 423.1 L 676.0 423.1" /><path d="M 676.0 406.7 L 676.0 406.7" /><path d="M 676.0 390.3 L 676.0 390.3" /><path d="M 676.0 373.9 L 676.0 373.9" /><path d="M 676.0 357.4 L 676.0 357.4" /><path d="M 676.0 341.0 L 676.0 341.0" /><path d="M 676.0 324.6 L 676.0 324.6" /><path d="M 676.0 308.2 L 676.0 308.2" /><path d="M 676.0 291.8 L 676.0 291.8" /><path d="M 676.0 275.4 L 676.0 275.4" /><path d="M 676.0 259.0 L 676.0 259.0" /><path d="M 676.0 242.6 L 676.0 242.6" /><path d="M 676.0 226.1 L 676.0 226.1" /><path d="M 676.0 209.7 L 641.6 209.7" /><path d="M 676.0 193.3 L 676.0 193.3" /><path d="M 676.0 176.9 L 676.0 176.9" /><path d="M 676.0 160.5 L 676.0 160.5" /><path d="M 676.0 144.1 L 676.0 144.1" /><path d="M 676.0 127.7 L 518.8 127.7" /><path d="M 676.0 111.2 L 676.0 111.2" /><path d="M 676.0 94.8 L 676.0 94.8" /><path d="M 676.0 78.4 L 676.0 78.4" /><path d="M 676.0 62.0 L 676.0 62.0" /></g><g class="toytree-TipLabels" style="fill:rgb(14.9%,14.9%,14.9%);fill-opacity:1.0;font-family:helvetica;font-size:11px;font-weight:normal;stroke:none;white-space:pre"><g transform="translate(675.96,538.00)rotate(0)"><a href="https://glottolog.org/resource/languoid/id/sipa1247#############"><text x="15.00" y="2.81" style="" fill="#0000ff">Sipacapa - Sipacapense [sipa1247#############]</text></a></g><g transform="translate(675.96,521.59)rotate(0)"><a href="https://glottolog.org/resource/languoid/id/saca1238#############"><text x="15.00" y="2.81" style="" fill="#0000ff">Sacapultec - Sacapulteco [saca1238#############]</text></a></g><g transform="translate(675.96,505.18)rotate(0)"><a href="https://glottolog.org/resource/languoid/id/achi1256#############"><text x="15.00" y="2.81" style="" fill="#0000ff">Achi - Achi [achi1256#############]</text></a></g><g transform="translate(675.96,488.76)rotate(0)"><a href="https://glottolog.org/resource/languoid/id/tzut1248#############"><text x="15.00" y="2.81" style="" fill="#0000ff">Tzutujil - Tz'utujil [tzut1248#############]</text></a></g><g transform="translate(675.96,472.35)rotate(0)"><a href="https://glottolog.org/resource/languoid/id/kaqc1270#############"><text x="15.00" y="2.81" style="" fill="#0000ff">ColonialCakchiquel - Kaqchikel [kaqc1270#############]</text></a></g><g transform="translate(675.96,455.93)rotate(0)"><a href="https://glottolog.org/resource/languoid/id/kich1262#############"><text x="15.00" y="2.81" style="" fill="#0000ff">Quiche - K'iche' [kich1262#############]</text></a></g><g transform="translate(675.96,439.52)rotate(0)"><a href="https://glottolog.org/resource/languoid/id/uspa1245#############"><text x="15.00" y="2.81" style="" fill="#0000ff">Uspantec - Uspanteco [uspa1245#############]</text></a></g><g transform="translate(675.96,423.11)rotate(0)"><a href="https://glottolog.org/resource/languoid/id/poqo1254#############"><text x="15.00" y="2.81" style="" fill="#0000ff">Pocomchi - Poqomchi' [poqo1254#############]</text></a></g><g transform="translate(675.96,406.69)rotate(0)"><a href="https://glottolog.org/resource/languoid/id/poqo1253#############"><text x="15.00" y="2.81" style="" fill="#0000ff">Pocomam - Poqomam [poqo1253#############]</text></a></g><g transform="translate(675.96,390.28)rotate(0)"><a href="https://glottolog.org/resource/languoid/id/kekc1242#############"><text x="15.00" y="2.81" style="" fill="#0000ff">Kekchi - Q'eqchi' [kekc1242#############]</text></a></g><g transform="translate(675.96,373.86)rotate(0)"><a href="https://glottolog.org/resource/languoid/id/tekt1235#############"><text x="15.00" y="2.81" style="" fill="#0000ff">Teco - Tektiteko [tekt1235#############]</text></a></g><g transform="translate(675.96,357.45)rotate(0)"><a href="https://glottolog.org/resource/languoid/id/mamm1241#############"><text x="15.00" y="2.81" style="" fill="#0000ff">Mam - Mam [mamm1241#############]</text></a></g><g transform="translate(675.96,341.04)rotate(0)"><a href="https://glottolog.org/resource/languoid/id/ixil1251#############"><text x="15.00" y="2.81" style="" fill="#0000ff">Ixil - Ixil [ixil1251#############]</text></a></g><g transform="translate(675.96,324.62)rotate(0)"><a href="https://glottolog.org/resource/languoid/id/agua1252#############"><text x="15.00" y="2.81" style="" fill="#0000ff">Aguacatec - Aguacateco [agua1252#############]</text></a></g><g transform="translate(675.96,308.21)rotate(0)"><a href="https://glottolog.org/resource/languoid/id/qanj1241#############"><text x="15.00" y="2.81" style="" fill="#0000ff">Kanjobal - Q'anjob'al [qanj1241#############]</text></a></g><g transform="translate(675.96,291.79)rotate(0)"><a href="https://glottolog.org/resource/languoid/id/west2635#############"><text x="15.00" y="2.81" style="" fill="#0000ff">Acatec - Akateko [west2635#############]</text></a></g><g transform="translate(675.96,275.38)rotate(0)"><a href="https://glottolog.org/resource/languoid/id/popt1235#############"><text x="15.00" y="2.81" style="" fill="#0000ff">Jacaltec - Popti' [popt1235#############]</text></a></g><g transform="translate(675.96,258.96)rotate(0)"><a href="https://glottolog.org/resource/languoid/id/moch1257#############"><text x="15.00" y="2.81" style="" fill="#0000ff">Motozintlec - Mocho [moch1257#############]</text></a></g><g transform="translate(675.96,242.55)rotate(0)"><a href="https://glottolog.org/resource/languoid/id/mopa1243#############"><text x="15.00" y="2.81" style="" fill="#0000ff">Mopan - Mopan [mopa1243#############]</text></a></g><g transform="translate(675.96,226.14)rotate(0)"><a href="https://glottolog.org/resource/languoid/id/itza1241#############"><text x="15.00" y="2.81" style="" fill="#0000ff">Itza - Itza' [itza1241#############]</text></a></g><g transform="translate(675.96,209.72)rotate(0)"><a href="https://glottolog.org/resource/languoid/id/yuca1254#############"><text x="15.00" y="2.81" style="" fill="#0000ff">ColonialYucatec - Yucatec Maya [yuca1254#############]</text></a></g><g transform="translate(675.96,193.31)rotate(0)"><a href="https://glottolog.org/resource/languoid/id/laca1243#############"><text x="15.00" y="2.81" style="" fill="#0000ff">Lacandon - Lacandon [laca1243#############]</text></a></g><g transform="translate(675.96,176.89)rotate(0)"><a href="https://glottolog.org/resource/languoid/id/taba1266#############"><text x="15.00" y="2.81" style="" fill="#0000ff">Chontal - Tabasco Chontal [taba1266#############]</text></a></g><g transform="translate(675.96,160.48)rotate(0)"><a href="https://glottolog.org/resource/languoid/id/chol1282#############"><text x="15.00" y="2.81" style="" fill="#0000ff">Chol - Chol [chol1282#############]</text></a></g><g transform="translate(675.96,144.07)rotate(0)"><a href="https://glottolog.org/resource/languoid/id/chor1273#############"><text x="15.00" y="2.81" style="" fill="#0000ff">Chorti - Ch'orti' [chor1273#############]</text></a></g><g transform="translate(675.96,127.65)rotate(0)"><a href="https://glottolog.org/resource/languoid/id/epig1241#############"><text x="15.00" y="2.81" style="" fill="#0000ff">ClassicMaya - Epigraphic Mayan [epig1241#############]</text></a></g><g transform="translate(675.96,111.24)rotate(0)"><a href="https://glottolog.org/resource/languoid/id/tzot1259#############"><text x="15.00" y="2.81" style="" fill="#0000ff">Tzotzil - Tzotzil [tzot1259#############]</text></a></g><g transform="translate(675.96,94.82)rotate(0)"><a href="https://glottolog.org/resource/languoid/id/tzel1254#############"><text x="15.00" y="2.81" style="" fill="#0000ff">Tzeltal - Tzeltal [tzel1254#############]</text></a></g><g transform="translate(675.96,78.41)rotate(0)"><a href="https://glottolog.org/resource/languoid/id/chic1271#############"><text x="15.00" y="2.81" style="" fill="#0000ff">Chicomuceltec - Chicomuceltec [chic1271#############]</text></a></g><g transform="translate(675.96,62.00)rotate(0)"><a href="https://glottolog.org/resource/languoid/id/huas1242#############"><text x="15.00" y="2.81" style="" fill="#0000ff">Huastec - Huastec [huas1242#############]</text></a></g></g></g></g><g class="toyplot-coordinates-Axis" id="t378899b1cecc4a2dbc144311700f48bc" transform="translate(50.0,550.0)translate(0,20.0)"><line x1="1.3879385684015375" y1="0" x2="625.9602943491356" y2="0" style="" /><g><line x1="625.9602943491356" y1="0" x2="625.9602943491356" y2="-5" style="" /><line x1="556.563365929054" y1="0" x2="556.563365929054" y2="-5" style="" /><line x1="487.16643750897254" y1="0" x2="487.16643750897254" y2="-5" style="" /><line x1="417.76950908889086" y1="0" x2="417.76950908889086" y2="-5" style="" /><line x1="348.37258066880935" y1="0" x2="348.37258066880935" y2="-5" style="" /><line x1="278.97565224872784" y1="0" x2="278.97565224872784" y2="-5" style="" /><line x1="209.57872382864622" y1="0" x2="209.57872382864622" y2="-5" style="" /><line x1="140.18179540856468" y1="0" x2="140.18179540856468" y2="-5" style="" /><line x1="70.78486698848315" y1="0" x2="70.78486698848315" y2="-5" style="" /><line x1="1.387938568401622" y1="0" x2="1.387938568401622" y2="-5" style="" /></g><g><g transform="translate(625.9602943491356,6)"><text x="-6.95" y="8.555" style="fill:rgb(16.1%,15.3%,14.1%);fill-opacity:1.0;font-family:helvetica;font-size:10.0px;font-weight:normal;stroke:none;vertical-align:baseline;white-space:pre">0.0</text></g><g transform="translate(556.563365929054,6)"><text x="-6.95" y="8.555" style="fill:rgb(16.1%,15.3%,14.1%);fill-opacity:1.0;font-family:helvetica;font-size:10.0px;font-weight:normal;stroke:none;vertical-align:baseline;white-space:pre">0.7</text></g><g transform="translate(487.16643750897254,6)"><text x="-6.95" y="8.555" style="fill:rgb(16.1%,15.3%,14.1%);fill-opacity:1.0;font-family:helvetica;font-size:10.0px;font-weight:normal;stroke:none;vertical-align:baseline;white-space:pre">1.5</text></g><g transform="translate(417.76950908889086,6)"><text x="-6.95" y="8.555" style="fill:rgb(16.1%,15.3%,14.1%);fill-opacity:1.0;font-family:helvetica;font-size:10.0px;font-weight:normal;stroke:none;vertical-align:baseline;white-space:pre">2.2</text></g><g transform="translate(348.37258066880935,6)"><text x="-6.95" y="8.555" style="fill:rgb(16.1%,15.3%,14.1%);fill-opacity:1.0;font-family:helvetica;font-size:10.0px;font-weight:normal;stroke:none;vertical-align:baseline;white-space:pre">2.9</text></g><g transform="translate(278.97565224872784,6)"><text x="-6.95" y="8.555" style="fill:rgb(16.1%,15.3%,14.1%);fill-opacity:1.0;font-family:helvetica;font-size:10.0px;font-weight:normal;stroke:none;vertical-align:baseline;white-space:pre">3.6</text></g><g transform="translate(209.57872382864622,6)"><text x="-6.95" y="8.555" style="fill:rgb(16.1%,15.3%,14.1%);fill-opacity:1.0;font-family:helvetica;font-size:10.0px;font-weight:normal;stroke:none;vertical-align:baseline;white-space:pre">4.4</text></g><g transform="translate(140.18179540856468,6)"><text x="-6.95" y="8.555" style="fill:rgb(16.1%,15.3%,14.1%);fill-opacity:1.0;font-family:helvetica;font-size:10.0px;font-weight:normal;stroke:none;vertical-align:baseline;white-space:pre">5.1</text></g><g transform="translate(70.78486698848315,6)"><text x="-6.95" y="8.555" style="fill:rgb(16.1%,15.3%,14.1%);fill-opacity:1.0;font-family:helvetica;font-size:10.0px;font-weight:normal;stroke:none;vertical-align:baseline;white-space:pre">5.8</text></g><g transform="translate(1.387938568401622,6)"><text x="-6.95" y="8.555" style="fill:rgb(16.1%,15.3%,14.1%);fill-opacity:1.0;font-family:helvetica;font-size:10.0px;font-weight:normal;stroke:none;vertical-align:baseline;white-space:pre">6.6</text></g></g><g class="toyplot-coordinates-Axis-coordinates" style="visibility:hidden" transform=""><line x1="0" x2="0" y1="-3.0" y2="4.5" style="stroke:rgb(43.9%,50.2%,56.5%);stroke-opacity:1.0;stroke-width:1.0" /><text x="0" y="-6" style="alignment-baseline:alphabetic;fill:rgb(43.9%,50.2%,56.5%);fill-opacity:1.0;font-size:10px;font-weight:normal;stroke:none;text-anchor:middle" /></g></g><g transform="translate(500.0,42.0)"><text x="-279.713" y="-4.823" style="fill:rgb(16.1%,15.3%,14.1%);fill-opacity:1.0;font-family:helvetica;font-size:14.0px;font-weight:bold;stroke:none;vertical-align:baseline;white-space:pre">Summary tree of a Bayesian analysis of the Mayan family with branches in millennia</text></g></g></svg>